<svg width="34" height="34" viewBox="0 0 34 34" fill="none" xmlns="http://www.w3.org/2000/svg">
<rect width="34" height="34" rx="10" fill="#5471D2"/>
<path d="M13.6 11.28L16.56 10.88L15.14 17.56C15.78 17.5067 16.3667 17.2267 16.9 16.72C17.4467 16.2133 17.8733 15.5867 18.18 14.84C18.4867 14.0933 18.64 13.36 18.64 12.64C18.64 11.84 18.4333 11.1867 18.02 10.68C17.6067 10.1733 16.9867 9.92 16.16 9.92C14.5333 9.92 13.26 10.3467 12.34 11.2C11.4333 12.0533 10.98 13.2467 10.98 14.78C10.98 15.2733 11.0267 15.62 11.12 15.82C11.2133 16.0067 11.26 16.1133 11.26 16.14C10.54 16.14 10 15.9933 9.64 15.7C9.29333 15.3933 9.12 14.8933 9.12 14.2C9.12 13.3467 9.46667 12.52 10.16 11.72C10.8667 10.9067 11.7667 10.2533 12.86 9.76C13.9533 9.25333 15.0467 9 16.14 9C17.1933 9 18.0733 9.18 18.78 9.54C19.4867 9.9 20.0067 10.38 20.34 10.98C20.6867 11.5667 20.86 12.22 20.86 12.94C20.86 13.8067 20.62 14.6533 20.14 15.48C19.6733 16.3067 19 16.9867 18.12 17.52C17.24 18.04 16.2267 18.3 15.08 18.3H14.98L13.76 24H10.88L13.6 11.28ZM22.6648 24.08C22.2248 24.08 21.8515 23.9267 21.5448 23.62C21.2382 23.3133 21.0848 22.94 21.0848 22.5C21.0848 22.06 21.2382 21.6867 21.5448 21.38C21.8515 21.06 22.2248 20.9 22.6648 20.9C23.1048 20.9 23.4782 21.06 23.7848 21.38C24.1048 21.6867 24.2648 22.06 24.2648 22.5C24.2648 22.94 24.1048 23.3133 23.7848 23.62C23.4782 23.9267 23.1048 24.08 22.6648 24.08Z" fill="white"/>
</svg>
